<svg width="32" height="32" viewBox="0 0 32 32" fill="none" xmlns="http://www.w3.org/2000/svg">
<g clip-path="url(#clip0_209_1408)">
<path d="M16.0012 0.499023C12.819 0.501527 9.76785 1.7669 7.51786 4.01724C5.26787 6.26759 4.00298 9.31893 4.00098 12.5011C4.00248 15.6833 5.26727 18.7348 7.51742 20.9849C9.76758 23.2351 12.819 24.4999 16.0012 24.5014C19.1834 24.4999 22.2348 23.2351 24.485 20.9849C26.7352 18.7348 27.9999 15.6833 28.0015 12.5011C27.9994 9.3186 26.7343 6.26698 24.4839 4.01658C22.2335 1.76618 19.1819 0.501026 15.9993 0.499023H16.0012ZM16.0012 1.49873C17.446 1.49823 18.8768 1.78251 20.2117 2.3353C21.5466 2.88809 22.7594 3.69857 23.7809 4.72038C24.8023 5.7422 25.6124 6.95533 26.1647 8.2904C26.7171 9.62548 27.0008 11.0563 26.9999 12.5011C26.9999 18.5825 22.0826 23.4998 16.0012 23.4998C9.91983 23.4998 5.00257 18.5825 5.00257 12.5011C5.00158 11.0565 5.2853 9.62579 5.83752 8.29084C6.38973 6.95589 7.19962 5.74285 8.22089 4.72105C9.24215 3.69926 10.4548 2.88875 11.7894 2.33584C13.1241 1.78294 14.5547 1.49848 15.9993 1.49873H16.0012Z" fill="#FFB100"/>
<path d="M16.0014 3.5C13.6151 3.5025 11.3273 4.4517 9.64007 6.13925C7.95287 7.8268 7.00416 10.1148 7.00216 12.5011C7.00366 14.8874 7.95227 17.1755 9.63963 18.8629C11.327 20.5502 13.6151 21.4989 16.0014 21.5004C18.3877 21.4989 20.6758 20.5502 22.3631 18.8629C24.0505 17.1755 24.9991 14.8874 25.0006 12.5011C24.9986 10.1148 24.0499 7.8268 22.3627 6.13925C20.6755 4.4517 18.3877 3.5025 16.0014 3.5ZM16.0014 4.4997C17.0521 4.49921 18.0926 4.70586 19.0634 5.10784C20.0342 5.50982 20.9162 6.09924 21.659 6.84239C22.4018 7.58554 22.9908 8.46783 23.3923 9.43881C23.7939 10.4098 24 11.4504 23.999 12.5011C24.0003 13.5518 23.7943 14.5925 23.3928 15.5634C22.9914 16.5344 22.4023 17.4167 21.6595 18.1597C20.9166 18.9028 20.0345 19.492 19.0636 19.8937C18.0927 20.2954 17.0521 20.5016 16.0014 20.5006C14.9503 20.5019 13.9094 20.2959 12.9381 19.8943C11.9667 19.4928 11.0841 18.9037 10.3408 18.1606C9.59739 17.4176 9.00784 16.5353 8.60585 15.5642C8.20387 14.593 7.99734 13.5522 7.99808 12.5011C7.99734 11.45 8.20385 10.409 8.60582 9.43779C9.00778 8.46656 9.5973 7.58411 10.3406 6.84093C11.084 6.09776 11.9666 5.50845 12.9379 5.10671C13.9092 4.70498 14.9503 4.49871 16.0014 4.4997ZM6.54861 19.3743L1.85245 27.5061C1.80552 27.5895 1.78347 27.6846 1.78889 27.7801C1.79432 27.8757 1.827 27.9676 1.88306 28.0452C1.93913 28.1227 2.01623 28.1826 2.10525 28.2177C2.19427 28.2528 2.29148 28.2616 2.38537 28.2432L7.16846 27.2983L8.74077 31.9169C8.7719 32.0078 8.82852 32.0879 8.90387 32.1475C8.97923 32.2071 9.07014 32.2437 9.16576 32.2531C9.26138 32.2625 9.35768 32.2441 9.44316 32.2003C9.52865 32.1564 9.59971 32.0889 9.64788 32.0058L14.2495 24.0384L13.3821 23.5357L9.33228 30.5468L7.9754 26.5594C7.93615 26.4452 7.85697 26.349 7.75245 26.2886C7.64793 26.2282 7.5251 26.2076 7.40657 26.2305L3.27169 27.045L7.41413 19.8751L6.54861 19.3743ZM25.4542 19.3743L24.5905 19.877L28.7311 27.0469L24.5981 26.2324C24.4796 26.2095 24.3567 26.2301 24.2522 26.2905C24.1477 26.3509 24.0685 26.4471 24.0293 26.5612L22.6705 30.5487L18.6225 23.5376L17.7532 24.0402L22.353 32.0058C22.4012 32.0889 22.4722 32.1564 22.5577 32.2003C22.6432 32.2441 22.7395 32.2625 22.8351 32.2531C22.9308 32.2437 23.0217 32.2071 23.097 32.1475C23.1724 32.0879 23.229 32.0078 23.2601 31.9169L24.8343 27.2983L29.6155 28.2432C29.7094 28.2616 29.8066 28.2528 29.8956 28.2177C29.9847 28.1826 30.0618 28.1227 30.1178 28.0452C30.1739 27.9676 30.2066 27.8757 30.212 27.7801C30.2174 27.6846 30.1954 27.5895 30.1484 27.5061L25.4542 19.3743Z" fill="#FFB100"/>
<path d="M16.0009 6.93188C15.6456 6.93188 15.5852 7.08685 15.4907 7.18323C14.9445 7.81442 14.2094 9.11461 13.9373 9.54548C13.0188 9.77415 12.0418 9.96502 11.214 10.2901C11.0931 10.3505 10.9287 10.3638 10.8172 10.7001C10.7095 11.0384 10.8342 11.1424 10.8966 11.2614C11.2991 11.9361 12.4443 13.2041 12.6635 13.4687C12.6068 14.476 12.4689 15.3831 12.5312 16.2883C12.5501 16.4206 12.5105 16.5812 12.7958 16.791C13.0831 16.9989 13.2248 16.9119 13.3571 16.8892C14.1451 16.7003 15.5587 16.0691 16.0009 15.8933C16.8891 16.2316 17.7698 16.6644 18.6429 16.8892C18.7751 16.9119 18.9169 16.9989 19.2041 16.791C19.4914 16.5831 19.4498 16.4206 19.4687 16.2883C19.5367 15.5078 19.361 13.8127 19.3364 13.4687C19.8467 12.8715 20.3947 12.2309 20.8766 11.6167C21.1506 11.3181 21.2621 11.0006 21.1827 10.7001C21.1015 10.3997 20.9087 10.3505 20.7878 10.2901C19.9052 9.94045 18.9698 9.77415 18.0646 9.54548C17.543 8.75176 17.0857 7.87868 16.5093 7.18323C16.4148 7.08874 16.3562 6.93188 15.999 6.93188H16.0009ZM16.0009 8.14703C16.4393 8.78767 16.8079 9.43965 17.2255 10.0765C17.2935 10.171 17.3162 10.2371 17.4768 10.3543C17.6375 10.4696 17.7017 10.4696 17.8132 10.5055C18.5597 10.7039 19.2892 10.8665 20.0281 11.0724C19.5594 11.6923 19.0492 12.2422 18.5729 12.8375C18.503 12.932 18.4501 12.9698 18.3877 13.1588C18.3273 13.3478 18.3462 13.412 18.348 13.5273C18.3858 14.3021 18.4577 15.0467 18.4917 15.8139C17.6602 15.5248 16.7757 15.058 16.0009 14.8936C15.8025 14.8936 15.7496 14.9333 15.6381 14.9692C14.9143 15.2451 14.2264 15.5437 13.5083 15.8121C13.5328 15.0335 13.6179 14.2908 13.6538 13.5273C13.6538 13.412 13.6727 13.3459 13.6122 13.1588C13.5517 12.9698 13.4988 12.932 13.427 12.8375C12.9546 12.2403 12.3914 11.6054 11.9719 11.0724C12.7183 10.8532 13.4516 10.702 14.1886 10.5055C14.3001 10.4696 14.3643 10.4696 14.525 10.3543C14.6837 10.2371 14.7083 10.171 14.7744 10.0765C15.039 9.68721 15.296 9.25256 15.5209 8.88594C15.6732 8.63472 15.8333 8.3883 16.0009 8.14703Z" fill="#FFB100"/>
</g>
<defs>
<clipPath id="clip0_209_1408">
<rect width="32" height="32" fill="white"/>
</clipPath>
</defs>
</svg>
