<svg width="32" height="32" viewBox="0 0 32 32" fill="none" xmlns="http://www.w3.org/2000/svg">
<path d="M16.6963 23.4001H15.3038C14.8104 23.4001 14.409 22.9986 14.409 22.5053C14.409 21.9617 14.0572 21.6223 13.7279 21.4858C13.3987 21.3495 12.9098 21.3406 12.5255 21.725C12.3565 21.894 12.1318 21.9871 11.8927 21.9871C11.6537 21.9871 11.4289 21.894 11.26 21.725L10.2753 20.7404C9.92647 20.3915 9.92647 19.8238 10.2753 19.4748C10.6591 19.0911 10.6499 18.6023 10.5135 18.2728C10.3769 17.9434 10.0378 17.5913 9.49515 17.5913C9.00172 17.5913 8.60034 17.1898 8.60034 16.6965V15.3041C8.60034 14.8106 9.00178 14.4093 9.49515 14.4093C10.0378 14.4093 10.3769 14.0571 10.5135 13.7277C10.65 13.3982 10.6591 12.9094 10.2753 12.5258C10.1063 12.3568 10.0133 12.132 10.0133 11.893C10.0133 11.6539 10.1064 11.4291 10.2754 11.2602L11.26 10.2756C11.4289 10.1066 11.6537 10.0135 11.8927 10.0135C12.1318 10.0135 12.3565 10.1066 12.5255 10.2756C12.9092 10.6593 13.398 10.65 13.7275 10.5137C14.0569 10.3772 14.409 10.0381 14.409 9.49546C14.409 9.00196 14.8105 8.60059 15.3038 8.60059H16.6962C17.1897 8.60059 17.591 9.00202 17.591 9.49546C17.591 10.0381 17.9432 10.3771 18.2726 10.5137C18.6022 10.6501 19.091 10.6593 19.4746 10.2756C19.8236 9.92677 20.3912 9.92671 20.7402 10.2756L21.7248 11.2602C21.8937 11.4291 21.9868 11.6539 21.9868 11.893C21.9868 12.132 21.8938 12.3568 21.7248 12.5258C21.341 12.9095 21.3502 13.3982 21.4867 13.7277C21.6232 14.0571 21.9623 14.4093 22.5049 14.4093C22.9983 14.4093 23.3997 14.8107 23.3997 15.3041V16.6965C23.3997 17.1899 22.9983 17.5913 22.5049 17.5913C21.9623 17.5913 21.6232 17.9434 21.4867 18.2728C21.3502 18.6023 21.341 19.0912 21.7248 19.4748C22.0737 19.8238 22.0737 20.3915 21.7248 20.7404L20.7402 21.725C20.3911 22.074 19.8235 22.0738 19.4746 21.725C19.0909 21.3413 18.6022 21.3505 18.2726 21.4869C17.9432 21.6235 17.591 21.9626 17.591 22.5052C17.5911 22.9986 17.1897 23.4001 16.6963 23.4001ZM13.2931 20.5218C13.5498 20.5218 13.8103 20.5728 14.0627 20.6775C14.8161 20.9895 15.284 21.6898 15.284 22.5052C15.284 22.5161 15.293 22.525 15.3038 22.525H16.6962C16.7015 22.525 16.7065 22.5229 16.7102 22.5192C16.7139 22.5155 16.716 22.5105 16.716 22.5052C16.716 21.6906 17.1842 20.9907 17.9378 20.6785C18.6915 20.3662 19.5173 20.5303 20.0934 21.1062C20.0952 21.1081 20.0974 21.1095 20.0998 21.1106C20.1022 21.1116 20.1048 21.1121 20.1074 21.1121C20.11 21.1121 20.1126 21.1116 20.115 21.1106C20.1174 21.1095 20.1196 21.1081 20.1214 21.1062L21.106 20.1216C21.1079 20.1198 21.1093 20.1176 21.1103 20.1152C21.1113 20.1128 21.1118 20.1102 21.1118 20.1076C21.1118 20.105 21.1113 20.1024 21.1103 20.1C21.1093 20.0976 21.1079 20.0954 21.106 20.0936C20.53 19.5175 20.3662 18.6916 20.6783 17.938C20.9905 17.1843 21.6903 16.7162 22.505 16.7162C22.5102 16.7162 22.5152 16.7141 22.519 16.7104C22.5227 16.7067 22.5248 16.7016 22.5248 16.6964V15.304C22.5248 15.2988 22.5227 15.2937 22.519 15.29C22.5152 15.2863 22.5102 15.2842 22.505 15.2842C21.6904 15.2842 20.9905 14.8161 20.6783 14.0625C20.3662 13.3088 20.53 12.4829 21.106 11.9069C21.108 11.9051 21.1095 11.9029 21.1105 11.9005C21.1115 11.8981 21.112 11.8955 21.1119 11.8928C21.112 11.8902 21.1115 11.8876 21.1105 11.8852C21.1095 11.8828 21.108 11.8806 21.1061 11.8788L20.1214 10.8942C20.1196 10.8924 20.1174 10.8909 20.115 10.8899C20.1126 10.8889 20.11 10.8883 20.1074 10.8883C20.1048 10.8883 20.1022 10.8889 20.0998 10.8899C20.0974 10.8909 20.0952 10.8924 20.0934 10.8942C19.5173 11.4702 18.6913 11.6341 17.9378 11.3219C17.1842 11.0098 16.716 10.3099 16.716 9.49527C16.716 9.49001 16.7139 9.48497 16.7102 9.48124C16.7065 9.47752 16.7015 9.47541 16.6962 9.4754H15.3038C15.2986 9.47541 15.2935 9.47752 15.2898 9.48124C15.2861 9.48497 15.284 9.49001 15.284 9.49527C15.284 10.3098 14.8159 11.0097 14.0623 11.3219C13.3086 11.6341 12.4827 11.4701 11.9067 10.8942C11.9049 10.8923 11.9028 10.8907 11.9003 10.8897C11.8979 10.8887 11.8953 10.8882 11.8927 10.8883C11.89 10.8882 11.8874 10.8887 11.885 10.8897C11.8826 10.8907 11.8804 10.8922 11.8787 10.8941L10.894 11.8788C10.8921 11.8806 10.8906 11.8828 10.8896 11.8852C10.8885 11.8876 10.8881 11.8902 10.8882 11.8928C10.8881 11.8955 10.8885 11.8981 10.8895 11.9005C10.8906 11.9029 10.8921 11.9051 10.894 11.9069C11.47 12.4829 11.6339 13.3089 11.3217 14.0625C11.0096 14.8161 10.3097 15.2842 9.49503 15.2842C9.48978 15.2842 9.48475 15.2863 9.48104 15.29C9.47733 15.2937 9.47523 15.2988 9.47522 15.304V16.6964C9.47522 16.7073 9.48415 16.7162 9.49503 16.7162C10.3096 16.7162 11.0095 17.1843 11.3217 17.938C11.6339 18.6916 11.47 19.5176 10.894 20.0936C10.8922 20.0954 10.8907 20.0976 10.8897 20.1C10.8887 20.1024 10.8882 20.105 10.8882 20.1076C10.8882 20.1102 10.8887 20.1128 10.8897 20.1152C10.8907 20.1176 10.8922 20.1198 10.894 20.1216L11.8787 21.1062C11.8804 21.1081 11.8826 21.1097 11.885 21.1107C11.8874 21.1117 11.89 21.1122 11.8927 21.1121C11.8953 21.1122 11.8979 21.1117 11.9003 21.1107C11.9028 21.1097 11.9049 21.1082 11.9067 21.1062C12.2901 20.723 12.7838 20.5218 13.2931 20.5218ZM16.0001 19.8401C13.8828 19.8401 12.1602 18.1175 12.1602 16.0003C12.1602 13.883 13.8828 12.1604 16.0001 12.1604C18.1174 12.1604 19.84 13.883 19.84 16.0003C19.84 18.1176 18.1174 19.8401 16.0001 19.8401ZM16.0001 13.0354C14.3653 13.0354 13.0352 14.3654 13.0352 16.0003C13.0352 17.6351 14.3652 18.9651 16.0001 18.9651C17.635 18.9651 18.965 17.6351 18.965 16.0003C18.965 14.3655 17.6349 13.0354 16.0001 13.0354Z" fill="#FFB100"/>
<path d="M28.2338 30.5392C28.1178 30.5392 28.0066 30.4931 27.9246 30.411C27.8425 30.329 27.7965 30.2177 27.7965 30.1017V28.7582H16C8.96508 28.7582 3.24177 23.0349 3.24177 16C3.24177 12.9835 4.31483 10.056 6.26333 7.75671C6.30439 7.70824 6.35552 7.6693 6.41316 7.64258C6.47079 7.61587 6.53356 7.60203 6.59708 7.60202H10.4388C10.5318 7.60202 10.6225 7.63168 10.6975 7.68671C10.7725 7.74173 10.8281 7.81925 10.8561 7.908C10.884 7.99675 10.883 8.09211 10.853 8.18022C10.8231 8.26833 10.7659 8.3446 10.6896 8.39796C8.20846 10.1346 6.72714 12.9766 6.72714 16C6.72714 21.1131 10.887 25.273 16.0001 25.273H27.7965V23.9295C27.7965 23.8409 27.8234 23.7544 27.8736 23.6814C27.9238 23.6085 27.995 23.5525 28.0777 23.5208C28.1604 23.4892 28.2508 23.4834 28.3369 23.5042C28.423 23.525 28.5007 23.5715 28.5598 23.6375L31.3259 26.7236C31.3978 26.8038 31.4376 26.9078 31.4376 27.0156C31.4376 27.1234 31.3978 27.2273 31.3259 27.3076L28.5598 30.3937C28.5188 30.4395 28.4685 30.4761 28.4123 30.5012C28.3562 30.5263 28.2953 30.5392 28.2338 30.5392ZM6.80202 8.47708C5.06896 10.5943 4.11677 13.2576 4.11677 16C4.11677 22.5525 9.44758 27.8832 16 27.8832H28.234C28.35 27.8832 28.4613 27.9293 28.5433 28.0113C28.6254 28.0934 28.6715 28.2047 28.6715 28.3207V28.9581L30.4125 27.0156L28.6715 25.0731V25.7105C28.6715 25.8265 28.6254 25.9378 28.5433 26.0198C28.4613 26.1019 28.35 26.148 28.234 26.148H16C10.4045 26.148 5.85208 21.5956 5.85208 16C5.85208 13.1192 7.08071 10.3893 9.19046 8.47708H6.80202ZM3.76614 30.5392C3.70464 30.5392 3.64383 30.5263 3.58767 30.5012C3.53151 30.4761 3.48126 30.4395 3.44021 30.3937L0.674205 27.3076C0.602277 27.2273 0.5625 27.1234 0.5625 27.0156C0.5625 26.9078 0.602277 26.8038 0.674205 26.7236L3.44021 23.6375C3.49932 23.5715 3.57705 23.525 3.66314 23.5042C3.74923 23.4834 3.83961 23.4892 3.92233 23.5208C4.00506 23.5525 4.07623 23.6085 4.12644 23.6814C4.17664 23.7544 4.20352 23.8409 4.20352 23.9295V25.273H5.81758C5.93714 25.273 6.05152 25.3219 6.13408 25.4085C7.0922 26.4132 8.19778 27.2661 9.41277 27.9378C9.49766 27.9848 9.56454 28.0586 9.60291 28.1477C9.64127 28.2368 9.64894 28.3361 9.6247 28.43C9.60046 28.5239 9.5457 28.6072 9.46902 28.6666C9.39233 28.726 9.29808 28.7582 9.20108 28.7582H4.20352V30.1017C4.20352 30.2177 4.15744 30.329 4.07542 30.411C3.9934 30.4931 3.88215 30.5392 3.76614 30.5392ZM1.58746 27.0156L3.32846 28.9581V28.3207C3.32846 28.2047 3.37455 28.0934 3.4566 28.0113C3.53864 27.9293 3.64992 27.8832 3.76596 27.8832H7.67596C6.94267 27.3689 6.25844 26.788 5.63196 26.148H3.76602C3.64999 26.148 3.53871 26.1019 3.45666 26.0198C3.37461 25.9378 3.32852 25.8265 3.32852 25.7105V25.0731L1.58746 27.0156ZM25.403 24.398H21.5613C21.4682 24.398 21.3776 24.3683 21.3025 24.3133C21.2275 24.2582 21.172 24.1807 21.144 24.092C21.116 24.0032 21.1171 23.9079 21.147 23.8198C21.1769 23.7317 21.2342 23.6554 21.3104 23.602C23.7915 21.8653 25.2728 19.0235 25.2728 16C25.2728 10.8868 21.113 6.72709 16 6.72709H4.20352V8.07052C4.20352 8.15909 4.17664 8.24558 4.12644 8.31854C4.07623 8.39151 4.00506 8.44752 3.92233 8.47916C3.83961 8.51081 3.74923 8.5166 3.66314 8.49577C3.57705 8.47495 3.49932 8.42848 3.44021 8.36252L0.674205 5.27646C0.602277 5.19621 0.5625 5.09223 0.5625 4.98446C0.5625 4.87669 0.602277 4.77271 0.674205 4.69246L3.44021 1.60634C3.49932 1.54038 3.57705 1.49391 3.66314 1.47308C3.74923 1.45226 3.83961 1.45805 3.92233 1.48969C4.00506 1.52134 4.07623 1.57735 4.12644 1.65031C4.17664 1.72328 4.20352 1.80976 4.20352 1.89834V3.24184H16C23.0349 3.24184 28.7582 8.96515 28.7582 16C28.7582 19.0166 27.6851 21.944 25.7367 24.2433C25.6956 24.2918 25.6445 24.3307 25.5869 24.3574C25.5292 24.3841 25.4665 24.398 25.403 24.398ZM22.8096 23.523H25.198C26.9311 21.4058 27.8832 18.7424 27.8832 16C27.8832 9.44759 22.5525 4.11684 16 4.11684H3.76602C3.64999 4.11684 3.53871 4.07074 3.45666 3.98869C3.37461 3.90665 3.32852 3.79537 3.32852 3.67934V3.04196L1.58752 4.98446L3.32852 6.92696V6.28965C3.32852 6.17362 3.37461 6.06234 3.45666 5.98029C3.53871 5.89824 3.64999 5.85215 3.76602 5.85215H16C21.5956 5.85215 26.1479 10.4045 26.1479 16C26.1479 18.8808 24.9193 21.6108 22.8096 23.523ZM28.2338 8.50808C28.1178 8.50805 28.0066 8.46194 27.9246 8.3799C27.8425 8.29786 27.7965 8.1866 27.7965 8.07058V6.72715H26.1825C26.1233 6.72716 26.0647 6.71515 26.0103 6.69185C25.9558 6.66855 25.9067 6.63444 25.8659 6.59158C24.9078 5.58683 23.8023 4.7339 22.5873 4.06215C22.5024 4.01523 22.4355 3.94142 22.3971 3.85232C22.3587 3.76323 22.351 3.6639 22.3753 3.56997C22.3995 3.47604 22.4543 3.39283 22.531 3.33343C22.6077 3.27403 22.7019 3.24181 22.799 3.24184H27.7965V1.89834C27.7965 1.80976 27.8233 1.72328 27.8735 1.65031C27.9237 1.57735 27.9949 1.52134 28.0776 1.48969C28.1604 1.45805 28.2507 1.45226 28.3368 1.47308C28.4229 1.49391 28.5007 1.54038 28.5598 1.60634L31.3258 4.69246C31.3978 4.77271 31.4375 4.87669 31.4375 4.98446C31.4375 5.09223 31.3978 5.19621 31.3258 5.27646L28.5598 8.36258C28.5187 8.40838 28.4685 8.44502 28.4123 8.47009C28.3561 8.49516 28.2953 8.5081 28.2338 8.50808ZM26.3681 5.85215H28.234C28.35 5.85215 28.4613 5.89824 28.5433 5.98029C28.6254 6.06234 28.6715 6.17362 28.6715 6.28965V6.92696L30.4125 4.98446L28.6715 3.04196V3.67934C28.6715 3.79537 28.6254 3.90665 28.5433 3.98869C28.4613 4.07074 28.35 4.11684 28.234 4.11684H24.324C25.0574 4.63107 25.7416 5.21198 26.3681 5.85215Z" fill="#FFB100"/>
</svg>
