<svg width="32" height="32" viewBox="0 0 32 32" fill="none" xmlns="http://www.w3.org/2000/svg">
<g clip-path="url(#clip0_209_1428)">
<path d="M11.1094 7.51381C11.0175 7.79675 11.108 8.1 11.3398 8.28644L13.4045 9.94594L12.7096 12.5021C12.6316 12.7891 12.7367 13.0876 12.9775 13.2627C13.2183 13.4375 13.5345 13.4452 13.7835 13.2823L15.9998 11.8315L18.2162 13.2824C18.3317 13.3585 18.4669 13.3992 18.6053 13.3994C18.7552 13.3992 18.9011 13.3513 19.022 13.2627C19.263 13.0878 19.3681 12.7891 19.2899 12.5021L18.595 9.946L20.6595 8.28656C20.8916 8.10019 20.9821 7.79688 20.8901 7.51381C20.7982 7.23069 20.5467 7.0385 20.2495 7.02413L17.6037 6.89512L16.6634 4.41875C16.5578 4.14056 16.2973 3.96075 15.9997 3.96075C15.7022 3.96075 15.4416 4.1405 15.3361 4.41869L14.3958 6.89519L11.7502 7.02413C11.4528 7.0385 11.2013 7.23069 11.1094 7.51381ZM14.6342 7.88469C14.7721 7.87799 14.9051 7.83118 15.0168 7.74999C15.1286 7.6688 15.2142 7.55676 15.2632 7.42763L15.9997 5.48794L16.7362 7.42781C16.7852 7.55689 16.8708 7.66885 16.9826 7.75C17.0943 7.83115 17.2272 7.87795 17.3652 7.88469L19.4375 7.98575L17.8202 9.28556C17.7126 9.37208 17.6325 9.48813 17.5898 9.61949C17.5471 9.75084 17.5437 9.89179 17.58 10.0251L18.1243 12.0272L16.3883 10.8907C16.2727 10.8151 16.1376 10.7749 15.9995 10.7749C15.8614 10.7749 15.7263 10.8152 15.6107 10.8908L13.8748 12.0272L14.4192 10.0252C14.4554 9.89189 14.452 9.75091 14.4093 9.61952C14.3667 9.48814 14.2865 9.37207 14.1788 9.28556L12.5617 7.98581L14.6342 7.88469ZM15.4997 2.33488V0.5C15.4997 0.367392 15.5523 0.240215 15.6461 0.146447C15.7399 0.0526784 15.8671 0 15.9997 0C16.1323 0 16.2594 0.0526784 16.3532 0.146447C16.447 0.240215 16.4997 0.367392 16.4997 0.5V2.33488C16.4997 2.46748 16.447 2.59466 16.3532 2.68843C16.2594 2.7822 16.1323 2.83488 15.9997 2.83488C15.8671 2.83488 15.7399 2.7822 15.6461 2.68843C15.5523 2.59466 15.4997 2.46748 15.4997 2.33488ZM18.5446 5.29725C18.4559 5.1987 18.4099 5.06895 18.4169 4.93652C18.4238 4.8041 18.4831 4.67986 18.5816 4.59113L20.6263 2.75C20.6751 2.70606 20.732 2.67216 20.7939 2.65024C20.8558 2.62832 20.9214 2.6188 20.987 2.62223C21.0526 2.62567 21.1168 2.64198 21.1761 2.67025C21.2354 2.69851 21.2885 2.73817 21.3324 2.78697C21.3764 2.83576 21.4103 2.89273 21.4322 2.95463C21.4541 3.01652 21.4636 3.08213 21.4602 3.1477C21.4568 3.21328 21.4405 3.27753 21.4122 3.3368C21.3839 3.39607 21.3443 3.44919 21.2955 3.49312L19.2507 5.33425C19.159 5.41706 19.0398 5.46283 18.9163 5.46269C18.8462 5.46279 18.7768 5.4481 18.7128 5.4196C18.6488 5.39109 18.5914 5.3494 18.5446 5.29725ZM10.6668 2.787C10.7108 2.7382 10.7639 2.69853 10.8232 2.67026C10.8824 2.64198 10.9467 2.62567 11.0123 2.62223C11.0779 2.61879 11.1435 2.62831 11.2054 2.65023C11.2673 2.67215 11.3242 2.70606 11.373 2.75L13.4178 4.59113C13.5163 4.67986 13.5756 4.80412 13.5825 4.93655C13.5895 5.06898 13.5435 5.19874 13.4548 5.29728C13.366 5.39583 13.2418 5.45508 13.1093 5.46202C12.9769 5.46895 12.8471 5.42299 12.7486 5.33425L10.7038 3.49312C10.6053 3.40439 10.546 3.28015 10.5391 3.14773C10.5322 3.0153 10.5781 2.88555 10.6668 2.787ZM22.4143 8.28644L24.479 9.94594L23.784 12.5021C23.706 12.7891 23.8111 13.0876 24.0519 13.2627C24.2926 13.4375 24.6088 13.4451 24.8579 13.2823L27.0742 11.8315L29.2906 13.2824C29.4061 13.3585 29.5414 13.3992 29.6797 13.3994C29.8296 13.3992 29.9756 13.3513 30.0965 13.2627C30.3373 13.0879 30.4424 12.7894 30.3643 12.5021L29.6694 9.946L31.734 8.28656C31.966 8.10025 32.0565 7.79694 31.9645 7.51381C31.8725 7.23069 31.621 7.0385 31.3239 7.02413L28.6781 6.89512L27.7379 4.41875C27.6323 4.14056 27.3718 3.96075 27.0742 3.96075C26.7766 3.96075 26.516 4.1405 26.4105 4.41869L25.4703 6.89512L22.8247 7.02406C22.5273 7.03844 22.2758 7.23069 22.1838 7.51381C22.0918 7.79688 22.1823 8.10019 22.4143 8.28644ZM25.7085 7.88469C25.8465 7.87799 25.9796 7.83117 26.0913 7.74997C26.2031 7.66877 26.2887 7.55672 26.3377 7.42756L27.0742 5.48787L27.8105 7.4275C27.8595 7.55666 27.9452 7.6687 28.0569 7.74991C28.1687 7.83111 28.3017 7.87793 28.4397 7.88462L30.512 7.98569L28.8949 9.28537C28.7872 9.37187 28.7071 9.48793 28.6643 9.61932C28.6216 9.7507 28.6182 9.89169 28.6545 10.025L29.1988 12.0271L27.4628 10.8907C27.3472 10.815 27.2121 10.7747 27.074 10.7747C26.9359 10.7747 26.8008 10.8151 26.6852 10.8907L24.9493 12.0271L25.4937 10.0251C25.5299 9.89183 25.5265 9.75085 25.4838 9.61948C25.4411 9.4881 25.361 9.37203 25.2533 9.2855L23.6362 7.98569L25.7085 7.88469ZM0.265286 8.28644L2.32997 9.94594L1.63504 12.5021C1.55704 12.7891 1.6621 13.0876 1.90291 13.2627C2.14379 13.4375 2.45997 13.4452 2.70891 13.2823L4.92522 11.8315L7.1416 13.2824C7.25711 13.3585 7.39237 13.3992 7.53072 13.3994C7.68062 13.3992 7.82656 13.3513 7.94747 13.2627C8.18829 13.0879 8.29341 12.7894 8.21535 12.5021L7.52041 9.946L9.58497 8.28656C9.81685 8.10038 9.90741 7.79713 9.81547 7.5135C9.72335 7.23056 9.47185 7.03844 9.17491 7.02406L6.5291 6.89506L5.58891 4.41875C5.48335 4.14056 5.22279 3.96075 4.92522 3.96075C4.6276 3.96075 4.36704 4.1405 4.26147 4.41869L3.32129 6.89512L0.675661 7.02406C0.378349 7.03844 0.126849 7.23069 0.0349737 7.5135C-0.0572138 7.79669 0.0332237 8.10012 0.265286 8.28644ZM3.55954 7.88469C3.69752 7.87799 3.83055 7.83117 3.94231 7.74997C4.05408 7.66877 4.13972 7.55672 4.18872 7.42756L4.92516 5.48787L5.66154 7.4275C5.71053 7.55666 5.79616 7.6687 5.90791 7.74991C6.01967 7.83111 6.15269 7.87793 6.29066 7.88462L8.36297 7.98569L6.74591 9.28537C6.63819 9.37187 6.55806 9.48793 6.51535 9.61932C6.47264 9.7507 6.4692 9.89169 6.50547 10.025L7.04979 12.0271L5.31379 10.8907C5.19824 10.815 5.06312 10.7747 4.925 10.7747C4.78688 10.7747 4.65176 10.8151 4.53622 10.8907L2.80035 12.0271L3.34466 10.0251C3.38091 9.89183 3.37748 9.75085 3.3348 9.61948C3.29211 9.4881 3.21202 9.37203 3.10435 9.2855L1.48716 7.98569L3.55954 7.88469ZM31.921 26.5583C31.5692 25.4222 30.8486 24.4021 29.8919 23.6857C29.4402 23.347 28.9404 23.0776 28.409 22.8865C29.1385 22.314 29.6085 21.4253 29.6085 20.4282C29.6085 18.7053 28.2068 17.3037 26.484 17.3037C24.7611 17.3037 23.3594 18.7053 23.3594 20.4282C23.3594 21.4241 23.8283 22.3119 24.5563 22.8845C23.5806 23.2327 22.7162 23.8446 22.0543 24.6691C21.7425 24.2328 21.3846 23.8313 20.9868 23.4715C20.1868 22.7474 19.2386 22.2064 18.2081 21.8862C19.2915 21.168 20.0078 19.9382 20.0078 18.5438C20.0078 16.3338 18.2097 14.5358 15.9997 14.5358C13.7897 14.5358 11.9917 16.3338 11.9917 18.5438C11.9917 19.9382 12.7078 21.168 13.7913 21.8862C12.7608 22.2064 11.8125 22.7473 11.0125 23.4715C10.6147 23.8312 10.2569 24.2327 9.9451 24.6691C9.28322 23.8445 8.41885 23.2326 7.4431 22.8843C8.17104 22.3117 8.63997 21.4239 8.63997 20.428C8.63997 18.7051 7.23829 17.3035 5.51547 17.3035C3.7926 17.3035 2.39091 18.7051 2.39091 20.428C2.39091 21.425 2.86091 22.3138 3.59029 22.8863C3.05895 23.0774 2.55913 23.3468 2.10735 23.6855C1.15066 24.4018 0.430099 25.422 0.0782862 26.5581C-0.0842763 27.0828 0.00578621 27.6154 0.331849 28.0578C0.657849 28.5 1.13997 28.7435 1.68935 28.7435H8.60141V29.6459C8.60141 30.944 9.65747 32.0001 10.9556 32.0001H21.0437C22.3418 32.0001 23.3979 30.944 23.398 29.6459V28.7437H30.31C30.8594 28.7437 31.3415 28.5002 31.6675 28.058C31.9935 27.6156 32.0835 27.083 31.921 26.5583ZM26.484 18.3037C27.6554 18.3037 28.6085 19.2568 28.6085 20.4282C28.6085 21.5997 27.6554 22.5527 26.484 22.5527C25.3125 22.5527 24.3594 21.5997 24.3594 20.4282C24.3594 19.2568 25.3125 18.3037 26.484 18.3037ZM12.9917 18.5438C12.9917 16.8851 14.3411 15.5358 15.9997 15.5358C17.6583 15.5358 19.0078 16.8851 19.0078 18.5438C19.0078 20.2019 17.6592 21.5509 16.0013 21.5518H15.998C14.3402 21.5508 12.9917 20.2018 12.9917 18.5438ZM5.51547 18.3034C6.68691 18.3034 7.63997 19.2565 7.63997 20.4279C7.63997 21.5994 6.68691 22.5525 5.51547 22.5525C4.34397 22.5525 3.39091 21.5994 3.39091 20.4279C3.39091 19.2565 4.34397 18.3034 5.51547 18.3034ZM8.66635 27.7434H1.68941C1.45929 27.7434 1.27341 27.6496 1.13685 27.4643C1.00022 27.2791 0.965536 27.0737 1.0336 26.8539C1.6451 24.8792 3.44629 23.5525 5.51547 23.5525C7.08066 23.5525 8.50647 24.3088 9.38341 25.5889C9.03496 26.2659 8.79309 26.9927 8.66635 27.7434ZM22.398 29.6458C22.3979 30.3925 21.7904 31 21.0437 31H10.9556C10.2089 31 9.60141 30.3925 9.60141 29.6458V28.2706C9.96341 25.0089 12.7087 22.5526 15.998 22.5518L15.9997 22.5518L16.0013 22.5518C19.2907 22.5526 22.0358 25.0089 22.398 28.2706V29.6458ZM30.8625 27.4646C30.726 27.6498 30.5402 27.7437 30.31 27.7437H23.3331C23.2063 26.9929 22.9644 26.2661 22.616 25.5891C23.493 24.3089 24.9188 23.5527 26.4839 23.5527C28.5531 23.5527 30.3543 24.8795 30.9658 26.8542C31.0338 27.0739 30.9991 27.2792 30.8625 27.4646Z" fill="#FFB100"/>
</g>
<defs>
<clipPath id="clip0_209_1428">
<rect width="32" height="32" fill="white"/>
</clipPath>
</defs>
</svg>
